<?xml version="1.0" encoding="UTF-8" standalone="no"?>
<!-- Generator: Adobe Illustrator 22.0.1, SVG Export Plug-In . SVG Version: 6.00 Build 0)  -->

<svg
   xmlns:dc="http://purl.org/dc/elements/1.1/"
   xmlns:cc="http://creativecommons.org/ns#"
   xmlns:rdf="http://www.w3.org/1999/02/22-rdf-syntax-ns#"
   xmlns:svg="http://www.w3.org/2000/svg"
   xmlns="http://www.w3.org/2000/svg"
   xmlns:sodipodi="http://sodipodi.sourceforge.net/DTD/sodipodi-0.dtd"
   xmlns:inkscape="http://www.inkscape.org/namespaces/inkscape"
   version="1.1"
   id="Capa_1"
   x="0px"
   y="0px"
   viewBox="0 0 1000 150"
   style="enable-background:new 0 0 1000 150;"
   xml:space="preserve"
   sodipodi:docname="BANCO AZTECA BUENO.svg"
   inkscape:version="0.92.2 (5c3e80d, 2017-08-06)"><metadata
     id="metadata110"><rdf:RDF><cc:Work
         rdf:about=""><dc:format>image/svg+xml</dc:format><dc:type
           rdf:resource="http://purl.org/dc/dcmitype/StillImage" /><dc:title></dc:title></cc:Work></rdf:RDF></metadata><defs
     id="defs108" /><sodipodi:namedview
     pagecolor="#ffffff"
     bordercolor="#ffffff"
     borderopacity="0"
     objecttolerance="10"
     gridtolerance="10"
     guidetolerance="10"
     inkscape:pageopacity="0"
     inkscape:pageshadow="2"
     inkscape:window-width="1600"
     inkscape:window-height="837"
     id="namedview106"
     showgrid="false"
     inkscape:zoom="0.7225"
     inkscape:cx="615.74696"
     inkscape:cy="111.06084"
     inkscape:window-x="-8"
     inkscape:window-y="-8"
     inkscape:window-maximized="1"
     inkscape:current-layer="Capa_1" /><style
     type="text/css"
     id="style61">
	.st0{fill:#FFFFFF;}
	.st1{fill:#027450;}
	.st2{fill:#BD2E1B;}
	.st3{fill:#067450;}
	.st4{fill:#077351;}
	.st5{fill:#067451;}
	.st6{fill:#047550;}
	.st7{fill:#077450;}
	.st8{fill:#037450;}
	.st9{fill:#057450;}
</style><path
     class="st1"
     d="m 159.61592,12.968166 c -9.3,1.6 -18.4,3.7 -28.9,6.6 8.6,3.2 16,5.6 23.2,8.7 24,10.2 46,22.9 60.4,43.9 5.4,7.8 8.9,16.4 7,26 -2,9.700004 -8.5,16.400004 -17.8,21.000004 -16.8,8.3 -35,8.9 -53.8,6.9 3.7,-1.2 7.4,-2.1 11,-3.5 12.7,-4.8 22.5,-12 24.9,-25.200004 1.5,-8.1 -0.9,-15.5 -4.9,-22.5 -9.9,-17.4 -26.1,-29 -44,-39.1 l -0.6,-0.3 c -27.3,-12.9 -18.2,-13.2 -45.500003,0.3 -16.5,8.2 -30.640484,19.446021 -40.840484,34.146021 -17.3,24.9 -8.119031,47.573013 23.180969,55.473013 1.905536,0.3 2.50865,0.69204 4.159515,1.68097 -19.4,1 -38.4,0.5 -55.3,-8.9 -18.2,-10.1 -21.60000004,-27.900004 -9.4,-45.700004 10.5,-15.3 25.3,-26.2 42.1,-35.4 11.4,-6.2 23.4,-11.3 36.1,-15.2 1.5,-0.5 3.4,-0.4 4.4,-2.6 -9,-2.9 -18.2,-4.7 -27.5,-6.4 10.2,-1.5 20.4,-1.4 30.4,0.5 10.700003,2 21.000003,1.8 31.700003,-0.1 8.82131,-0.965979 19.9,-1.9 30,-0.3 z"
     id="path65"
     inkscape:connector-curvature="0"
     style="fill:#027450"
     sodipodi:nodetypes="ccccccccccccccccccccccccc" /><path
     class="st2"
     d="m 147.91592,84.368166 c 0,17.500004 -15.3,31.300004 -34.7,31.400004 -20.000003,0.1 -35.500003,-13.5 -35.500003,-31.200004 0,-18 15.2,-31.7 34.900003,-31.7 19.8,0 35.3,13.8 35.3,31.5 z"
     id="path67"
     inkscape:connector-curvature="0"
     style="fill:#bd2e1b" /><path
     class="st3"
     d="m 682.51592,119.96817 c -3.2,1.9 -5.4,1.3 -7.4,1.3 -9.6,0.1 -19.1,0 -29.3,0 0.6,-1.2 0.7,-2 1.1,-2.1 3.2,-1.2 8.6,0.1 7.7,-5.6 -1.3,-8.1 -4.8,-11.7 -11.5,-11.6 h -7.7 c -10.4,0 -11.99446,1.6 -13.99446,11 -1.3,6.1 4.39446,4.8 7.59446,6.7 -3.6,2.1 -15.2,2.4 -22,0.5 11.03495,-9.58166 12.46747,-18.85398 18.1,-29.200004 5.7,-11 10.3,-22.6 15.4,-33.8 0.7,-1.5 1.1,-3.6 3.6,-3.5 2.3,0.1 2.8,3.5 2.8,3.5 8.3,17.2 16.5,34.5 24.6,51.800004 2.1,4.6 4.4,9 11,11 z"
     id="path69"
     inkscape:connector-curvature="0"
     style="fill:#067450"
     sodipodi:nodetypes="ccccccsccccccccc" /><path
     class="st4"
     d="m 860.41592,82.268166 c -2.5,-1.4 -2.1,-3.6 -2.9,-5.3 -3.1,-6.4 -16.6,-11 -23.4,-7.8 -2,0.9 -2.4,2.6 -2.4,4.4 0,4.9 0.2,9.7 -0.1,14.6 -0.1,3.1 1.4,3.7 4.3,3.2 4.3,-0.7 7.4,-2.7 9.1,-6.6 0.8,-1.7 -0.1,-4 3,-5.5 0,9.5 0,18.5 0,27.600004 -2.2,0.3 -2,-1.3 -2.3,-2.6 -0.5,-2.7 -1.3,-5.300004 -3.9,-7.100004 -2.6,-1.9 -5.8,-3.5 -8.9,-2.4 -2.7,1 -1.1,4.1 -1.3,6.300004 -0.2,3.7 0.1,7.4 -0.1,11.1 -0.3,5.2 2.5,7 7.8,6.8 9.2,-0.3 16.6,-3.4 21.6,-10.6 1,-1.4 1.3,-3.2 3.8,-4.4 1.2,5.9 -1.8,10.9 -2.4,16.1 -0.1,1.2 -1.5,1.3 -2.5,1.3 -17,0 -34.1,0 -51.9,-0.8 10.7,-1.2 8.6,-8 8.6,-13.7 0.1,-8.800004 0,-17.500004 0,-26.300004 0,-9.5 0,-9.5 -8.1,-13.7 0.9,-1.6 2.6,-1 4,-1 14.6,-0.1 29.2,0.1 43.8,-0.1 3.8,0 5.6,1 5.1,4.6 -0.4,3.8 1.1,7.8 -0.9,11.9 z"
     id="path71"
     inkscape:connector-curvature="0"
     style="fill:#077351" /><path
     class="st3"
     d="m 444.31592,67.468166 c -6.2,1.1 -7.9,4.5 -7.7,10.1 0.4,13.6 0.2,27.200004 0.1,40.800004 0,1.4 1,3.5 -1.1,4.1 -1.9,0.5 -2.9,-1.3 -4,-2.4 -12.3,-13.4 -24.6,-26.800004 -38.3,-41.800004 0,7.3 0,12.9 0,18.6 0,3.700004 0.2,7.400004 0,11.100004 -0.4,6 0.9,10.8 8.5,12.8 -6.7,0 -13.3,0 -20,0 8.5,-1.5 7.5,-7.4 7.5,-12.8 0,-9.300004 -0.3,-18.700004 0.1,-28.000004 0.2,-4.8 -1.3,-8.4 -5.6,-11 -1.6,-0.9 -3.1,-1.7 -0.9,-3.4 14.2,-2.3 23.4,3.6 30.9,14.2 4.9,7 11.5,12.9 17.4,19.4 0.1,0.1 0.4,0.2 1.6,0.7 -0.2,-9.2 0.5,-17.9 -0.6,-26.7 -0.5,-4.3 -4.7,-4.4 -8.3,-5.5 4.8,-2.6 16.3,-2.5 20.4,-0.2 z"
     id="path73"
     inkscape:connector-curvature="0"
     style="fill:#067450" /><path
     class="st5"
     d="m 741.71592,101.76817 c 1.8,6 -0.4,11.4 -0.7,17 -0.1,2.4 -2,2.6 -4.1,2.6 -15,0 -30.1,0 -45.1,0 -6.6,0 -3,-3.3 -1.8,-5.1 9.6,-14.2 19.4,-28.400004 29.2,-42.600004 0.9,-1.3 2.1,-2.4 2,-4.1 -14.6,-2.2 -19.8,0 -27.1,11.2 -0.5,0.8 -0.9,2 -2.2,1.8 -1.9,-0.3 -1.3,-1.7 -1.2,-2.8 0.5,-3.9 1.1,-7.7 1.5,-11.6 0.3,-3.2 2.8,-2.4 4.8,-2.4 12.7,-0.1 25.4,0.1 38,-0.1 5.7,-0.1 5.6,1.6 3.1,5.2 -10.1,14.7 -20,29.400004 -30,44.100004 -0.5,0.8 -1,1.7 -1.8,3 7.8,1.3 15.1,0.5 22.2,-1.5 7.8,-2.1 9.9,-8.8 13.2,-14.7 z"
     id="path75"
     inkscape:connector-curvature="0"
     style="fill:#067451" /><path
     class="st6"
     d="m 749.91592,82.368166 c -1.6,-5 -0.5,-9.8 -0.7,-14.5 -0.1,-2.3 2.1,-2.1 3.7,-2.1 15.9,0 31.8,0 47.6,0 2.2,0 3.7,0.4 3.7,2.9 -0.1,4.4 0,8.7 0,13.1 -3.3,0.2 -3.1,-1.8 -3.5,-3.1 -0.9,-2.9 -2.5,-5.4 -5.2,-7.2 -3,-2 -6.6,-3.8 -10.1,-2.3 -2.8,1.2 -1.2,4.6 -1.3,6.9 -0.1,10.5 -0.1,21 -0.1,31.500004 0,9.5 0,9.5 8.6,12.5 -4.4,1.5 -24.1,1.7 -32.6,0.1 11.4,-1.3 8.9,-8.7 8.9,-14.9 0.1,-10.700004 -0.2,-21.400004 0,-32.100004 0.1,-4.7 -2.2,-5.2 -6.3,-4.1 -4.3,1.2 -7.6,3.5 -9.4,7.4 -0.6,2 -0.7,4.3 -3.3,5.9 z"
     id="path77"
     inkscape:connector-curvature="0"
     style="fill:#047550" /><path
     class="st3"
     d="m 929.41592,83.768166 c -5,-3 -6.6,-7.5 -10.4,-10.7 -11.4,-9.7 -24.2,-6.6 -28.2,7 -2.5,8.4 -2.5,17 -0.4,25.400004 3.1,12.1 13.4,16.4 26,11.4 3.6,-1.4 6.7,-3.4 9.4,-5.9 1,-0.9 2.1,-2.3 3.8,-1.1 1.8,1.3 0.2,2.5 -0.7,3.4 -8.3,8.4 -19,11.1 -30.9,9.1 -11.6,-1.9 -20.2,-7.9 -23.6,-18.3 -3.8,-11.700004 -2.1,-22.900004 8.3,-31.600004 10.4,-8.7 22.5,-9.7 35.3,-5.2 3.1,1.1 5.8,2.5 8.3,-1.1 1.3,-1.8 3.1,-1.4 3.1,1.1 0.1,5.4 0,10.9 0,16.5 z"
     id="path79"
     inkscape:connector-curvature="0"
     style="fill:#067450" /><path
     class="st7"
     d="m 966.41592,120.76817 c 4.3,-2.3 9.4,-1.3 8.1,-6.6 -1.8,-7.3 -3.4,-9 -10.3,-9 h -6.4 c -7.4,0 -10.6,2.7 -11.3,9.3 -0.5,4.6 3.7,4.3 6.9,5.7 -6,1.4 -11.9,1.2 -18.4,0.7 10.20796,-11.10865 11.79446,-20.7135 17.9,-31.100004 3.8,-7.2 6.8,-14.6 10.2,-22 0.6,-1.4 0.6,-3.4 3,-3.1 1.8,0.2 1.9,1.8 2.5,3.1 6.8,14.4 13.7,28.8 20.5,43.300004 1.7,3.7 3.8,7.1 9.7,9.7 z"
     id="path81"
     inkscape:connector-curvature="0"
     style="fill:#077450"
     sodipodi:nodetypes="ccsscccccccccc" /><path
     class="st8"
     d="m 242.11592,56.568166 c 1.4,-2.4 3.1,-1.8 4.5,-1.8 10.5,0 21.1,0 31.6,0 5,0 9.8,0.9 14.5,2.2 7,2 11.5,6 12.4,12.7 0.7,5.6 -3.5,10.9 -10.6,13.9 -1.3,0.5 -2.8,0.8 -4.3,1.3 1,2.2 3.3,1.8 4.9,2.4 8.8,3.2 13.8,8.9 13.7,15.900004 -0.1,6.9 -5.6,13.1 -14.1,15.8 -5.1,1.6 -10.4,2.3 -15.8,2.3 -10.7,0 -21.5,0 -32.2,0 -1.3,0 -3,0.7 -4,-0.9 0.6,-2.1 2.8,-1.5 4.2,-2 3.5,-1.1 5.4,-3.1 5.4,-6.4 0,-15.900004 0,-31.900004 0,-47.800004 -0.2,-5.9 -5.8,-5.9 -10.2,-7.6 z"
     id="path83"
     inkscape:connector-curvature="0"
     style="fill:#037450" /><path
     class="st9"
     d="m 547.21592,122.76817 c -19.1,-0.1 -32.1,-11.8 -32.1,-28.800004 0,-17.1 13.5,-29.4 32.4,-29.4 18.8,0 32.6,12.4 32.6,29.4 0,17.100004 -13.5,28.900004 -32.9,28.800004 z"
     id="path85"
     inkscape:connector-curvature="0"
     style="fill:#057450" /><path
     class="st7"
     d="m 333.11592,120.36817 c -0.2,1.1 -1.2,0.9 -2,0.9 h -16.5 c 11.04364,-11.91168 13.24364,-26.344677 20.97766,-38.65533 2.6,-4.7 4.52234,-9.944674 6.62234,-14.744674 0.6,-1.3 0.8,-2.9 2.6,-3 2.3,-0.2 2.5,1.8 3.2,3.1 6.4,13.6 12.8,27.1 19.2,40.700004 2.1,4.5 3.8,9.4 9.2,12 h -30.8 c 4,-2.4 9.5,-0.8 8.4,-6.2 -1.4,-7.1 -3.6,-9.3 -10.1,-9.3 -3.2,0 -6.5,0.2 -9.7,-0.1 -3.2,-0.2 -4.9,0.7 -6.1,3.6 -3,8 -3.2,7.9 5,11.7 z"
     id="path87"
     inkscape:connector-curvature="0"
     style="fill:#077450"
     sodipodi:nodetypes="cscccccccccsccc" /><path
     class="st3"
     d="m 505.21592,84.168166 c -2.6,-3.7 -4.8,-7.7 -8.3,-10.9 -10.6,-9.7 -23.8,-6.9 -28.3,6 -2.9,8.4 -3,17 -0.9,25.300004 3.5,13.8 16,18.3 29.4,10.9 2.4,-1.3 4.4,-3.1 6.5,-4.7 1.1,-0.9 2.2,-2.3 3.7,-0.8 1.6,1.5 -0.3,2.4 -1.1,3.4 -8.6,9.4 -24.8,12.3 -38.4,6.9 -11.8,-4.6 -19.4,-17.2 -17.6,-29.200004 3,-20.8 23.5,-31.8 45,-24 3.3,1.2 6.2,2.9 8.8,-1.1 1.2,-1.8 2.7,-1.2 2.8,0.7 0.2,5.7 0.1,11.4 0.1,17.1 -0.5,0.2 -1.1,0.3 -1.7,0.4 z"
     id="path89"
     inkscape:connector-curvature="0"
     style="fill:#067450" /><path
     class="st0"
     d="m 637.01592,74.468166 c 3.4,7.4 6.1,13.7 9.1,19.9 1.3,2.7 1,3.9 -2.6,3.7 -4.1,-0.2 -8.1,-0.1 -12.2,0 -3.2,0.1 -4.4,-0.6 -3,-3.6 2.9,-6.3 5.5,-12.6 8.7,-20 z"
     id="path91"
     inkscape:connector-curvature="0"
     style="fill:#ffffff" /><path
     class="st0"
     d="m 960.11592,82.368166 c 2.9,6.2 5.4,11.3 7.7,16.5 0.5,1 1.1,2.700004 -0.6,2.800004 -4.4,0.3 -9,0.5 -13.4,0 -2.4,-0.3 -1.1,-2.500004 -0.6,-3.800004 2.2,-4.9 4.4,-9.7 6.9,-15.5 z"
     id="path93"
     inkscape:connector-curvature="0"
     style="fill:#ffffff" /><path
     class="st0"
     d="m 289.71592,103.76817 c 0,9.3 -4.9,14.5 -13.4,14.4 -4.1,-0.1 -6.5,-1.6 -6.5,-5.5 0,-7.2 0,-14.300004 -0.1,-21.500004 -0.1,-3 1.5,-3.4 4.4,-3.4 9.8,0 15.6,5.8 15.6,16.000004 z"
     id="path95"
     inkscape:connector-curvature="0"
     style="fill:#ffffff" /><path
     class="st0"
     d="m 269.71592,71.768166 c 0,-2.1 -0.2,-4.3 0,-6.4 0.2,-2.4 -1.1,-5.4 2.4,-6.6 3.3,-1.2 6.8,-1 9.9,0.9 4.4,2.7 6.1,10.8 3.8,17.8 -1.7,5.1 -5.9,6.6 -11.2,7 -4.2,0.4 -5.3,-1.1 -5,-4.5 0.3,-2.7 0.1,-5.4 0.1,-8.1 0,-0.1 0,-0.1 0,-0.1 z"
     id="path97"
     inkscape:connector-curvature="0"
     style="fill:#ffffff" /><path
     class="st0"
     d="m 563.41592,94.268166 c 0.4,6.100004 -0.3,11.800004 -2.8,17.300004 -2.3,5.1 -6.4,8.4 -12.6,8.6 -6.2,0.2 -10.8,-2.6 -13,-7.9 -5.1,-12.300004 -5,-24.700004 0.3,-36.900004 2.2,-5 6.7,-8.1 13.1,-7.7 6.4,0.4 10,4.2 12.2,9.1 2.5,5.6 3.4,11.5 2.8,17.5 z"
     id="path99"
     inkscape:connector-curvature="0"
     style="fill:#ffffff" /><path
     class="st0"
     d="m 331.41592,101.46817 c 2.7,-6.200004 5.2,-12.100004 7.8,-18.200004 2.5,1.9 10.1,16 7.9,17.600004 -3.5,2.7 -10,1.2 -15.7,0.6 z"
     id="path101"
     inkscape:connector-curvature="0"
     style="fill:#ffffff" /><path
     class="st1"
     d="M-141-90"
     id="path103" /></svg>