<?xml version="1.0" encoding="UTF-8" standalone="no"?>
<svg
   viewBox="0 0 302.79178 296.16239"
   height="296.16238"
   width="302.79178"
   xml:space="preserve"
   id="svg2"
   version="1.1"
   sodipodi:docname="Logo_de_Citibanamex.svg"
   inkscape:version="1.1 (c68e22c387, 2021-05-23)"
   xmlns:inkscape="http://www.inkscape.org/namespaces/inkscape"
   xmlns:sodipodi="http://sodipodi.sourceforge.net/DTD/sodipodi-0.dtd"
   xmlns="http://www.w3.org/2000/svg"
   xmlns:svg="http://www.w3.org/2000/svg"
   xmlns:rdf="http://www.w3.org/1999/02/22-rdf-syntax-ns#"
   xmlns:cc="http://creativecommons.org/ns#"
   xmlns:dc="http://purl.org/dc/elements/1.1/"><sodipodi:namedview
     id="namedview34"
     pagecolor="#ffffff"
     bordercolor="#666666"
     borderopacity="1.0"
     inkscape:pageshadow="2"
     inkscape:pageopacity="0.0"
     inkscape:pagecheckerboard="0"
     showgrid="false"
     fit-margin-top="0"
     fit-margin-left="0"
     fit-margin-right="0"
     fit-margin-bottom="0"
     inkscape:zoom="0.44296875"
     inkscape:cx="-477.46032"
     inkscape:cy="276.54321"
     inkscape:window-width="1920"
     inkscape:window-height="1017"
     inkscape:window-x="1912"
     inkscape:window-y="-8"
     inkscape:window-maximized="1"
     inkscape:current-layer="svg2" /><metadata
     id="metadata8"><rdf:RDF><cc:Work
         rdf:about=""><dc:format>image/svg+xml</dc:format><dc:type
           rdf:resource="http://purl.org/dc/dcmitype/StillImage" /></cc:Work></rdf:RDF></metadata><defs
     id="defs6"><clipPath
       id="clipPath18"
       clipPathUnits="userSpaceOnUse"><path
         id="path16"
         d="M 0,560 H 960 V 0 H 0 Z" /></clipPath></defs><g
     transform="matrix(2.4715238,0,0,-2.4715238,-1963.4265,843.09669)"
     id="g10"><g
       id="g12"><g
         clip-path="url(#clipPath18)"
         id="g14"><g
           transform="translate(109.199,257.9949)"
           id="g20"><path
             id="path22"
             style="fill:#034784;fill-opacity:1;fill-rule:nonzero;stroke:none"
             d="m 0,0 c -4.294,-5.254 -10.796,-8.604 -18.075,-8.604 -12.929,0 -23.41,10.568 -23.41,23.604 0,13.036 10.481,22.824 23.41,22.824 7.14,0 13.533,-3.224 17.827,-8.306 L 9.914,39.904 C 2.796,48.213 -7.596,53.23 -19.311,53.23 -40.75,53.23 -58.13,35.632 -58.13,13.923 c 0,-21.709 17.38,-38.527 38.819,-38.527 11.681,0 22.157,5.224 29.273,13.49 z" /></g><path
           id="path24"
           style="fill:#034784;fill-opacity:1;fill-rule:nonzero;stroke:none"
           d="m 141.452,233.391 h -15.216 v 72.957 h 15.216 z" /><g
           transform="translate(167.3967,322.1724)"
           id="g26"><path
             id="path28"
             style="fill:#034784;fill-opacity:1;fill-rule:nonzero;stroke:none"
             d="M 0,0 15.411,9.559 V -14.63 H 30.822 V -28.676 H 15.411 v -41.355 c 0,0 3.121,-12.095 18.922,0 l -2.926,-14.436 c 0,0 -5.072,-4.681 -12.68,-4.291 -7.608,0.39 -16.386,2.536 -18.727,16.191 v 43.696 H -12.68 V -14.63 H 0 Z" /></g><path
           id="path30"
           style="fill:#034784;fill-opacity:1;fill-rule:nonzero;stroke:none"
           d="m 228.455,233.391 h -15.216 v 72.957 h 15.216 z" /><g
           transform="translate(285.9109,246.8782)"
           id="g32"><path
             id="path34"
             style="fill:#034784;fill-opacity:1;fill-rule:nonzero;stroke:none"
             d="M 0,0 C -10.234,0 -18.051,10.534 -18.051,10.534 V 40.575 C -7.517,52.28 0,49.939 0,49.939 8.688,50.134 18.037,42.526 17.842,25.648 17.647,8.77 10.234,0 0,0 m 2.431,64.179 c -13.46,-0.195 -19.897,-9.168 -19.897,-9.168 V 85.832 L -32.877,76.859 V -13.46 h 15.216 v 8.778 c 7.412,-9.753 19.507,-8.778 19.507,-8.778 11.9,-0.39 30.431,9.559 31.017,39.108 0.585,29.55 -16.972,38.726 -30.432,38.531" /></g><g
           transform="translate(238.5537,320.5237)"
           id="g36"><path
             id="path38"
             style="fill:#df040b;fill-opacity:1;fill-rule:nonzero;stroke:none"
             d="m 0,0 c -12.511,18.838 -33.703,33.462 -61.403,33.462 -20.323,0 -38.633,-8.33 -51.477,-21.65 0,0 -6.395,-6.87 -9.516,-11.812 h 17.686 c 11.445,12.726 24.455,19.752 43.502,19.752 19.639,0 36.233,-10.269 44.976,-19.752 z" /></g><g
           transform="translate(372.2236,254.6694)"
           id="g40"><path
             id="path42"
             style="fill:#034784;fill-opacity:1;fill-rule:nonzero;stroke:none"
             d="m 0,0 c 0,0 -9.364,-9.559 -19.312,-8.778 -9.949,0.78 -14.046,7.217 -14.241,12.875 -0.195,5.657 4.289,11.444 16.774,11.444 C -4.295,15.541 0,11.119 0,11.119 Z m -15.216,55.206 c 0,0 -12.484,0.111 -25.164,-7.023 l 6.047,-10.534 c 0,0 9.755,5.441 19.507,5.267 C -3.901,42.721 0,32.772 0,32.772 v -9.363 c 0,0 -4.682,4.459 -16.971,4.375 -12.29,-0.084 -30.627,-5.156 -30.432,-24.468 0,0 -0.39,-24.801 27.115,-24.579 0,0 12.485,-0.78 20.288,8.778 v -8.778 h 15.021 v 54.816 c 0,0 -1.561,21.263 -30.237,21.653" /></g><g
           transform="translate(400.1841,233.391)"
           id="g44"><path
             id="path46"
             style="fill:#034784;fill-opacity:1;fill-rule:nonzero;stroke:none"
             d="m 0,0 h 15.346 v 49.063 c 0,0 -0.52,15.42 15.345,15.42 15.866,0 15.606,-15.42 15.606,-15.42 L 46.311,0 h 15.072 v 52.284 c 0,0 -0.52,25.749 -25.75,25.489 0,0 -15.605,1.041 -19.767,-8.583 v 7.294 H 0 Z" /></g><g
           transform="translate(516.9679,254.6694)"
           id="g48"><path
             id="path50"
             style="fill:#034784;fill-opacity:1;fill-rule:nonzero;stroke:none"
             d="m 0,0 c 0,0 -9.364,-9.559 -19.312,-8.778 -9.949,0.78 -14.046,7.217 -14.241,12.875 -0.195,5.657 4.289,11.444 16.774,11.444 C -4.295,15.541 0,11.119 0,11.119 Z m -15.216,55.206 c 0,0 -12.484,0.111 -25.164,-7.023 l 6.047,-10.534 c 0,0 9.755,5.441 19.507,5.267 C -3.901,42.721 0,32.772 0,32.772 v -9.363 c 0,0 -4.682,4.459 -16.971,4.375 -12.29,-0.084 -30.627,-5.156 -30.432,-24.468 0,0 -0.39,-24.801 27.115,-24.579 0,0 12.485,-0.78 20.288,8.778 v -8.778 h 15.021 v 54.816 c 0,0 -1.561,21.263 -30.237,21.653" /></g><g
           transform="translate(599.679,300.3052)"
           id="g52"><path
             id="path54"
             style="fill:#034784;fill-opacity:1;fill-rule:nonzero;stroke:none"
             d="m 0,0 c -5.657,11.899 -16.443,10.895 -19.859,10.859 0,0 -15.11,1.04 -19.14,-8.583 V 9.57 H -54.36 v -76.484 h 14.858 v 49.063 c 0,0 -0.504,15.42 14.858,15.42 7.531,0 14.305,-5.567 15.085,-13.76 V -66.914 H 4.688 v 52.284 c 0,0 0.774,12.289 13.584,12.199 15.361,-0.109 15.11,-15.42 15.11,-15.42 l 0.013,-49.063 h 14.593 v 52.284 c 0,0 -0.504,25.749 -24.931,25.489 0,0 -17.79,2.016 -23.057,-10.859" /></g><g
           transform="translate(690.7781,297.7693)"
           id="g56"><path
             id="path58"
             style="fill:#034784;fill-opacity:1;fill-rule:nonzero;stroke:none"
             d="m 0,0 c 17.752,0.195 18.532,-18.727 18.532,-18.727 h -37.064 c 0,0 0.78,18.532 18.532,18.727 m 32.577,-30.236 v 11.509 c 0,0 -2.536,32.042 -31.407,31.797 -28.87,-0.245 -34.918,-23.799 -34.918,-36.089 0,-12.289 5.267,-40.579 33.163,-40.579 0,0 17.821,-0.326 26.989,9.428 l -7.872,9.498 c 0,0 -4.292,-5.462 -19.117,-5.657 -11.315,-0.149 -19.508,12.095 -17.947,20.093 z" /></g><g
           transform="translate(724.9159,309.0835)"
           id="g60"><path
             id="path62"
             style="fill:#034784;fill-opacity:1;fill-rule:nonzero;stroke:none"
             d="M 0,0 H 15.021 L 30.236,-24.969 44.672,0 H 61.058 L 39.405,-36.578 61.058,-73.738 H 44.672 L 30.041,-46.622 15.021,-73.738 H -1.561 l 23.019,37.16 z" /></g><g
           transform="translate(884.9426,288.6446)"
           id="g64"><path
             id="path66"
             style="fill:#df040b;fill-opacity:1;fill-rule:nonzero;stroke:none"
             d="m 0,0 c 0,0 -1.965,0.574 -4.286,0.33 0.731,0.716 1.469,1.891 1.903,3.843 1.091,4.898 -4.597,7.918 -6.835,12.104 -2.237,4.185 -2.436,7.497 2.283,7.608 l -0.092,0.066 C -0.108,19.337 5.396,12.483 8.264,3.995 8.798,2.413 9.366,-0.246 9.703,-1.939 4.431,-0.87 0,0 0,0 m -5.822,-39.125 c -1.532,-1.158 -4.407,-2.812 -5.789,-3.588 -0.304,5.592 -0.597,10.391 -0.597,10.391 0,0 0.05,1.747 -0.589,3.735 0.889,-0.347 2.105,-0.553 3.778,-0.381 4.991,0.514 6.058,6.865 9.322,10.311 3.263,3.447 6.342,4.682 7.939,0.241 l 0.034,0.108 C 6.086,-26.331 1.324,-33.72 -5.822,-39.125 m -9.715,14.646 c -0.969,0.744 -2.219,1.295 -3.833,1.488 0,0 -16.976,2.635 -22.413,-1.523 0,0 -0.302,-0.209 -0.62,-0.673 0.781,1.446 1.148,3.27 0.563,5.518 0,0 -3.33,14.903 -8.619,19.576 1.473,-0.18 3.123,0.082 4.875,1.155 0,0 14.956,8.453 16.646,15.085 0,0 0.023,0.077 0.044,0.205 -0.098,-2.02 0.507,-4.276 2.799,-6.19 0,0 11.375,-10.188 18.395,-10.913 -1.26,-0.747 -2.395,-1.943 -3.134,-3.827 0,0 -5.519,-12.744 -4.703,-19.901 m -12.415,-20.461 0.113,-0.006 c -8.316,0.097 -16.666,2.842 -23.698,8.395 -1.065,0.841 -2.536,2.267 -3.697,3.436 4.12,1.887 7.321,3.373 7.321,3.373 0,0 3.414,1.22 5.24,4.095 -0.486,-0.979 -0.812,-2.651 0.158,-5.249 1.756,-4.701 8.171,-4.132 12.329,-6.422 4.158,-2.289 6.129,-4.957 2.234,-7.622 m -29.696,43.933 c -3.735,-3.35 -0.865,-9.115 -1.478,-13.821 -0.614,-4.707 -2.378,-7.517 -6.281,-4.863 l 0.036,-0.107 c -2.946,7.777 -3.438,16.554 -0.835,25.127 0.542,1.784 1.832,4.687 2.512,6.173 3.619,-4.101 6.707,-7.556 6.707,-7.556 0,0 1.258,-1.697 3.312,-2.905 -1.037,-0.12 -2.39,-0.628 -3.973,-2.048 m 5.104,24.547 c 6.587,5.078 14.841,8.099 23.802,8.099 1.984,0 5.428,-0.443 6.929,-0.65 -2.809,-4.882 -5.2,-9.101 -5.2,-9.101 0,0 -1.556,-2.244 -1.846,-5.06 0.001,1.001 -0.444,2.953 -3.46,4.781 -4.291,2.601 -8.973,-1.82 -13.655,-2.601 -4.682,-0.78 -7.883,0.092 -6.477,4.598 z M 25.635,-5.368 c -2.525,0.651 -8.182,1.845 -13.542,2.942 0.089,0.06 0.167,0.119 0.224,0.172 4.074,3.795 12.023,18.75 12.023,18.75 1.671,3.585 -2.023,9.609 -2.023,9.609 l -0.216,0.324 C 15.548,36.071 5.525,43.598 -4.81,48.207 c 0,0 -5.94,1.046 -9.005,-3.696 -1.471,-2.275 -4.568,-7.574 -7.393,-12.473 -0.079,0.553 -0.188,1.154 -0.317,1.44 -2.292,5.075 -13.915,17.392 -13.915,17.392 -2.861,2.731 -9.751,1.16 -9.751,1.16 l -0.377,-0.101 C -56.799,48.808 -67.139,41.72 -74.814,33.405 c 0,0 -2.892,-5.293 0.619,-9.715 1.684,-2.119 5.706,-6.743 9.44,-10.983 -0.44,0.058 -0.869,0.095 -1.114,0.063 -5.522,-0.719 -20.685,-8.262 -20.685,-8.262 -3.444,-1.944 -3.942,-8.993 -3.942,-8.993 l -0.013,-0.39 c -0.276,-11.654 3.501,-23.607 9.229,-33.367 0,0 4.224,-4.305 9.475,-2.23 2.516,0.995 8.107,3.5 13.248,5.84 -0.955,-6.288 0.357,-21.162 0.357,-21.162 0.553,-3.917 6.934,-6.953 6.934,-6.953 l 0.358,-0.155 c 10.749,-4.511 23.256,-5.357 34.433,-3.587 0,0 5.55,2.361 5.535,8.007 -0.008,2.703 -0.299,8.81 -0.6,14.445 0.384,-0.378 0.807,-0.765 1.071,-0.908 4.889,-2.666 21.589,-5.478 21.589,-5.478 3.93,-0.453 8.477,4.957 8.477,4.957 l 0.24,0.307 c 7.075,9.265 11.047,21.155 12.152,32.417 0,0 -0.886,5.966 -6.354,7.374" /></g></g></g></g></svg>
